<svg xmlns="http://www.w3.org/2000/svg" viewBox="0 0 64 64" width="64" height="64">
  <rect width="64" height="64" rx="14" fill="#0f0f10"/>
  <g fill="#e9b949">
    <circle cx="14" cy="21" r="3.4"/>
    <circle cx="23" cy="17" r="3.8"/>
    <circle cx="32" cy="14.5" r="4.2"/>
    <circle cx="41" cy="17" r="3.8"/>
    <circle cx="50" cy="21" r="3.4"/>
    <path d="M14 21 L19 30 L23 17 L28 30 L32 14.5 L36 30 L41 17 L45 30 L50 21 L46 35 L18 35 Z"/>
    <rect x="17.5" y="36" width="29" height="4.2" rx="1.6"/>
    <path d="M19.5 41 L16.5 51.5 L47.5 51.5 L44.5 41 Z"/>
    <path d="M14.5 52 L49.5 52 L52.5 58.5 L11.5 58.5 Z"/>
  </g>
</svg>
